#include "tetris.h"
#include "pitches.h"

static const int tetris_melody[] = {
//Based on the arrangement at https://www.flutetunes.com/tunes.php?id=192
  
  NOTE_E5, 4,  NOTE_B4,8,  NOTE_C5,8,  NOTE_D5,4,  NOTE_C5,8,  NOTE_B4,8,
  NOTE_A4, 4,  NOTE_A4,8,  NOTE_C5,8,  NOTE_E5,4,  NOTE_D5,8,  NOTE_C5,8,
  NOTE_B4, -4,  NOTE_C5,8,  NOTE_D5,4,  NOTE_E5,4,
  NOTE_C5, 4,  NOTE_A4,4,  NOTE_A4,4, REST,4,

  REST,8, NOTE_D5, 4,  NOTE_F5,8,  NOTE_A5,4,  NOTE_G5,8,  NOTE_F5,8,
  NOTE_E5, -4,  NOTE_C5,8,  NOTE_E5,4,  NOTE_D5,8,  NOTE_C5,8,
  NOTE_B4, 4,  NOTE_B4,8,  NOTE_C5,8,  NOTE_D5,4,  NOTE_E5,4,
  NOTE_C5, 4,  NOTE_A4,4,  NOTE_A4,4, REST, 4,

  NOTE_E5,2, NOTE_C5,2,
  NOTE_D5,2, NOTE_B4,2,
  NOTE_C5,2, NOTE_A4,2,
  NOTE_B4,1,

  NOTE_E5,2, NOTE_C5,2,
  NOTE_D5,2, NOTE_B4,2,
  NOTE_C5,4, NOTE_E5,4, NOTE_A5,2,
  NOTE_GS5,1,

  NOTE_E5, 4,  NOTE_B4,8,  NOTE_C5,8,  NOTE_D5,4,  NOTE_C5,8,  NOTE_B4,8,
  NOTE_A4, 4,  NOTE_A4,8,  NOTE_C5,8,  NOTE_E5,4,  NOTE_D5,8,  NOTE_C5,8,
  NOTE_B4, -4,  NOTE_C5,8,  NOTE_D5,4,  NOTE_E5,4,
  NOTE_C5, 4,  NOTE_A4,4,  NOTE_A4,4, REST,4,

  REST,8, NOTE_D5, 4,  NOTE_F5,8,  NOTE_A5,4,  NOTE_G5,8,  NOTE_F5,8,
  REST,8, NOTE_E5, 4,  NOTE_C5,8,  NOTE_E5,4,  NOTE_D5,8,  NOTE_C5,8,
  REST,8, NOTE_B4, 4,  NOTE_C5,8,  NOTE_D5,4,  NOTE_E5,4,
  REST,8, NOTE_C5, 4,  NOTE_A4,8,  NOTE_A4,4, REST, 4,
};

const Song tetris_song = {
    "Tetris",
    tetris_melody,
    sizeof(tetris_melody) / sizeof(tetris_melody[0]) / 2,
    144
};
